<svg width="318.88mm" height="251.49mm" version="1.1" viewBox="0 0 318.88 251.49" xml:space="preserve" xmlns="http://www.w3.org/2000/svg"><g transform="translate(52.825 -16.819)"><path d="m-23.209 16.819c-2.4811-0.0105-2.5628 0.0294-12.551 6.1118-4.0746 2.4813-9.0157 5.4894-10.98 6.6849-4.1822 2.5449-4.5453 2.8536-5.4229 4.6147-0.52637 1.0563-0.66249 1.73-0.66249 3.2732 0 2.3697 0.18724 2.7698 3.6716 7.8316 1.4188 2.0611 5.5267 8.1186 9.1281 13.461 3.6014 5.3426 6.9274 10.035 7.3913 10.427 3.1056 2.6269 7.4553 2.8435 12.657 0.62994 1.0272-0.4371 2.0658-0.79479 2.3084-0.79479 0.29732 0 2.0711 2.7371 5.4436 8.4005 2.7513 4.6203 5.0389 8.4749 5.0834 8.5664s-0.1221 0.56771-0.37 1.0583c-0.62187 1.2307-0.56379 3.52 0.12351 4.856l0.54208 1.0526-1.2718 1.3916c-2.0289 2.22-2.6977 5.0758-2.0107 8.5881 1.1096 5.6736 5.1239 12.366 8.8263 14.715 1.9848 1.2593 4.5448 1.9266 8.0429 2.0965l3.0773 0.14986 1.1043 1.6795c2.3361 3.5532 6.1888 4.2811 9.7379 1.8397l1.3033-0.89659 0.1272 20.559-6.5236 0.0796c-6.102 0.0743-6.5474 0.11233-6.8983 0.59273-0.30678 0.42-0.37517 2.191-0.37517 9.7178 0 10.499-0.21362 9.2807 2.7699 15.831 0.82857 1.819 2.7968 6.2243 4.3739 9.7896 2.5534 5.7726 4.2623 9.663 11.504 26.194 2.6599 6.0716 3.1847 7.0405 4.6591 8.5995 1.567 1.6568 3.3898 2.6896 5.5986 3.1719 1.3751 0.30025 12.717 0.35268 67.403 0.31368l65.749-0.0465 1.4934-0.6041c3.2052-1.296 5.3108-3.575 7.12-7.7065 1.0438-2.3837 3.399-7.5828 6.6027-14.576 0.76668-1.6735 2.0781-4.5905 2.9146-6.4823 2.9591-6.6928 6.0107-13.506 6.4875-14.486 0.4415-0.90689 0.57617-0.99218 1.5689-0.99218 1.5892 0 3.8447-0.65526 6.0255-1.7503 2.3146-1.1622 4.9829-3.7796 6.2001-6.0823 3.1702-5.9972 3.5366-14.428 1.0108-23.26-1.3686-4.7855-4.2748-9.7985-7.4497-12.851l-1.8113-1.7415 4.5822-1.1482c5.4724-1.3712 4.9213-0.88919 8.4858-7.4254l2.4846-4.5553-1.9017-6.7753c-1.0985-3.9138-2.092-6.9577-2.3523-7.2073-0.24785-0.23768-3.6653-2.2194-7.5944-4.4039-7.9885-4.4414-11.264-6.2858-15.804-8.8997l-3.1042-1.787-0.0708-27.825-0.0708-27.825-0.56948-1.232c-0.73679-1.5939-2.4009-3.1936-4.2835-4.1181l-1.4971-0.73536-150.12-0.1369-1.5296 0.57206c-1.9461 0.72814-4.0258 2.744-4.7398 4.594-0.49208 1.275-0.51214 2.4711-0.58084 34.592-0.0684 32.014-0.0896 33.271-0.55449 33.271-0.69326 0-1.1238-0.61961-2.2944-3.2995-1.2388-2.8362-3.5541-6.0535-5.4152-7.5246-1.8287-1.4455-4.8178-2.8786-6.7458-3.2344-0.87312-0.16113-2.0267-0.47173-2.5632-0.6904-0.66992-0.27308-1.3511-0.34127-2.1761-0.21756l-1.201 0.18035-0.98392-1.5368c-1.8578-2.9014-9.0832-14.982-9.0832-15.187 0-0.1126 1.0418-1.0927 2.3151-2.1782 1.2733-1.0854 2.6233-2.314 3.0003-2.7301 1.8208-2.0091 2.7482-4.7658 2.5647-7.6243-0.13562-2.1132-0.7997-3.6442-4.7093-10.859-2.3756-4.3838-6.4761-12.1-9.3379-17.572-2.7602-5.277-4.2131-6.4745-7.8729-6.49zm-0.72089 10.946c0.47253 0.0304 0.98291 0.41866 1.4733 1.1431 2.4237 3.5805 11.17 18.71 11.17 19.322 0 1.1403-1.4187 1.654-2.1709 0.786-0.36878-0.42555-3.4812-5.6002-9.2971-15.457-2.2439-3.8031-2.611-4.8195-1.9725-5.4581 0.24352-0.24352 0.51333-0.35416 0.79685-0.3359zm-8.4057 5.2023c0.89374 0.0207 1.7868 1.3793 5.3826 7.4352 6.7814 11.421 7.2006 12.167 7.2006 12.834 0 1.2233-1.3738 1.7357-2.1647 0.80719-0.38098-0.44727-9.0729-15.04-10.79-18.114-0.92009-1.6478-0.96568-2.5575-0.14315-2.8572 0.1827-0.0666 0.34868-0.10874 0.51418-0.1049zm-8.278 5.1351c0.77504 0 1.0935 0.48761 9.8299 15.039 2.5808 4.2987 2.8857 4.9335 2.668 5.5562-0.25111 0.71841-1.2327 1.0546-1.8655 0.63872-0.16875-0.11092-1.248-1.7493-2.3983-3.6406-8.1352-13.376-9.5979-15.854-9.5979-16.26 0-0.54519 0.8062-1.3333 1.3638-1.3333z" fill="#130f2a"/><path d="m-23.321 19.314c-1.166 0.0414-2.4971 0.65848-4.7041 2.0081-1.6345 0.99953-7.02 4.2808-11.968 7.2921-5.3435 3.2522-9.2441 5.7975-9.6077 6.2689-0.39783 0.51578-0.65747 1.2879-0.74207 2.205-0.16516 1.7916-0.54209 1.1574 9.1715 15.434 9.7834 14.379 9.8667 14.491 11.497 15.401 1.1674 0.65149 1.5878 0.73626 3.5724 0.72296 2.021-0.0135 2.5199-0.1275 4.9248-1.1245 3.1729-1.3154 4.5846-1.4388 5.4741-0.47904 0.3213 0.34668 1.3494 1.9243 2.2846 3.5057 1.8535 3.1343 6.1995 10.251 7.613 12.467 0.48744 0.76398 1.0379 1.3891 1.2232 1.3891 0.40118 0 2.6836-1.415 2.9326-1.818 0.0958-0.15496-0.55299-1.4356-1.4418-2.8463-1.6449-2.611-6.0069-10.052-7.5794-12.93-0.60139-1.1007-0.86933-1.9444-0.87333-2.7502-7e-3 -1.2764 0.37774-1.7354 4.2845-5.1196 2.1382-1.8522 3.1164-3.6567 3.3135-6.1118 0.16831-2.0968-0.0342-2.5748-5.0607-11.948-2.0289-3.7835-5.1311-9.6171-6.8942-12.964-1.763-3.347-3.4201-6.4071-3.6825-6.8001-0.26234-0.39303-1.0106-0.97303-1.663-1.2888-0.73476-0.35569-1.3752-0.53801-2.0748-0.51314zm-0.60823 8.4512c0.47253 0.0304 0.98291 0.41866 1.4733 1.1431 2.4237 3.5805 11.17 18.71 11.17 19.322 0 1.1403-1.4187 1.654-2.1709 0.786-0.36878-0.42555-3.4812-5.6002-9.2971-15.457-2.2439-3.8031-2.611-4.8195-1.9725-5.4581 0.24352-0.24352 0.51333-0.35416 0.79685-0.3359zm-8.4057 5.2023c0.89374 0.0207 1.7868 1.3793 5.3826 7.4352 6.7814 11.421 7.2006 12.167 7.2006 12.834 0 1.2233-1.3738 1.7357-2.1647 0.80719-0.38098-0.44727-9.0729-15.04-10.79-18.114-0.92009-1.6478-0.96568-2.5575-0.14315-2.8572 0.1827-0.0666 0.34868-0.10874 0.51418-0.1049zm-8.278 5.1351c0.77504 0 1.0935 0.48761 9.8299 15.039 2.5808 4.2987 2.8857 4.9335 2.668 5.5562-0.25111 0.71841-1.2327 1.0546-1.8655 0.63872-0.16875-0.11092-1.248-1.7493-2.3983-3.6406-8.1352-13.376-9.5979-15.854-9.5979-16.26 0-0.54519 0.8062-1.3333 1.3638-1.3333z" fill="#c2c5ca"/><path d="m-23.286 20.027c-0.16562-0.0101-0.32761-0.01-0.48369 3e-3 -0.17838 0.0139-0.34888 0.0429-0.50746 0.0884-0.45921 0.1317-2.7544 1.4164-5.1005 2.8546-2.346 1.4382-6.468 3.9567-9.1602 5.5966-2.6921 1.6398-6.0694 3.7006-7.5044 4.5796-1.5772 0.96606-2.8064 1.9215-3.1078 2.4159-0.61046 1.0011-0.64368 2.5519-0.078 3.6458 0.38006 0.73494 8.3545 12.534 15.665 23.178 1.5282 2.2251 3.0902 4.268 3.4711 4.5393 0.38093 0.27124 1.3207 0.69824 2.0882 0.94929 1.8197 0.59519 3.0918 0.41098 6.4156-0.92914 1.4417-0.58124 3.1291-1.1364 3.7496-1.234 0.62056-0.0976 1.4258-0.35035 1.7896-0.56121 0.30398-0.17618 0.45998-0.26341 0.48215-0.25941h5.1e-4l5.2e-4 5.1e-4 5.2e-4 5.2e-4h5.1e-4v0.00103l5.2e-4 5.2e-4v5.2e-4l-5.2e-4 5.1e-4c-2e-3 0.0192-0.11272 0.11378-0.31987 0.28577-0.47955 0.39812-0.46729 0.43828 0.33899 1.1167 0.45997 0.38703 1.9781 2.6243 3.374 4.9723 3.209 5.3978 7.5253 12.339 7.6729 12.339 0.0619 0 0.58438-0.24086 1.1607-0.53485 0.57629-0.294 1.048-0.60709 1.048-0.69557 0-0.0885-0.75473-1.3657-1.6769-2.8386-0.92216-1.4729-3.1505-5.2356-4.9516-8.3612-3.0063-5.217-3.2744-5.792-3.2716-7.0115 4e-3 -1.725 0.41103-2.3057 3.176-4.5294 2.4705-1.9869 3.6172-3.4824 4.2163-5.4999 0.53533-1.8026 0.49172-2.4612-0.26459-3.9987-0.35792-0.7276-0.65432-1.4209-0.65887-1.5405-8e-3 -0.21027-1.6547-3.3154-6.7593-12.747-1.3389-2.4738-3.481-6.522-4.7604-8.9958-1.2794-2.4739-2.6094-4.8816-2.9554-5.3501-0.60112-0.81398-1.9304-1.4094-3.0897-1.4805zm-0.64389 7.738c0.47253 0.0304 0.98291 0.41866 1.4733 1.1431 2.4237 3.5805 11.17 18.71 11.17 19.322 0 1.1403-1.4187 1.654-2.1709 0.786-0.36878-0.42555-3.4812-5.6002-9.2971-15.457-2.2439-3.8031-2.611-4.8195-1.9725-5.4581 0.24352-0.24352 0.51333-0.35416 0.79685-0.3359zm-8.4057 5.2023c0.89374 0.0207 1.7868 1.3793 5.3826 7.4352 6.7814 11.421 7.2006 12.167 7.2006 12.834 0 1.2233-1.3738 1.7357-2.1647 0.80719-0.38098-0.44727-9.0729-15.04-10.79-18.114-0.92009-1.6478-0.96568-2.5575-0.14315-2.8572 0.1827-0.0666 0.34868-0.10874 0.51418-0.1049zm-8.278 5.1351c0.77504 0 1.0935 0.48761 9.8299 15.039 2.5808 4.2987 2.8857 4.9335 2.668 5.5562-0.25111 0.71841-1.2327 1.0546-1.8655 0.63872-0.16875-0.11092-1.248-1.7493-2.3983-3.6406-8.1352-13.376-9.5979-15.854-9.5979-16.26 0-0.54519 0.8062-1.3333 1.3638-1.3333z" fill="#8d8d8d" fill-opacity=".23587"/><g fill="#130f2a"><path d="m-23.808 25.198c-0.85748-0.0177-1.7253 0.22963-2.405 0.76429-1.642 1.2916-1.8834 3.1481-0.71158 5.4674 1.8027 3.568 10.876 18.544 11.857 19.572 0.94327 0.98754 1.2145 1.1243 2.2293 1.124 2.3954-8.5e-4 4.1987-1.6826 4.1987-3.916 0-0.88228-0.254-1.6458-0.97616-2.9373-1.6304-2.9158-10.669-17.827-11.358-18.736-0.64639-0.85385-1.732-1.3151-2.8344-1.3379zm-0.12144 2.5678c0.47253 0.0304 0.98291 0.41866 1.4733 1.1431 2.4237 3.5805 11.17 18.71 11.17 19.322 0 1.1403-1.4187 1.654-2.1709 0.786-0.36878-0.42555-3.4812-5.6002-9.2971-15.457-2.2439-3.8031-2.611-4.8195-1.9725-5.4581 0.24352-0.24352 0.51333-0.35416 0.79685-0.3359z"/><path d="m-32.073 30.219c-2.0356-0.0921-4.083 1.4242-4.083 3.7569 0 1.1534 0.8494 2.7629 6.2999 11.932 6.0293 10.143 6.015 10.121 6.9804 10.709 2.5605 1.5611 5.7697-0.26501 5.7697-3.2835 0-1.3452-0.38663-2.1555-3.5057-7.3479-1.512-2.517-3.9762-6.6595-5.4762-9.2062-1.5-2.5466-3.0345-4.9606-3.4101-5.364-0.72702-0.78077-1.6498-1.155-2.575-1.1968zm-0.262 2.7487c0.89374 0.0207 1.7868 1.3793 5.3826 7.4352 6.7814 11.421 7.2006 12.167 7.2006 12.834 0 1.2233-1.3738 1.7357-2.1647 0.80719-0.38098-0.44727-9.0729-15.04-10.79-18.114-0.92009-1.6478-0.96568-2.5575-0.14315-2.8572 0.1827-0.0666 0.34868-0.10874 0.51418-0.1049z"/><path d="m-40.819 35.469c-2.1521 0.0303-4.1586 1.9292-3.6484 4.6493 0.0987 0.52624 2.3244 4.5062 4.9919 8.9261 6.4695 10.719 7.4971 12.294 8.3116 12.736 1.0212 0.55488 2.9202 0.4927 3.9393-0.12868 2.3206-1.4149 2.453-3.4757 0.44442-6.9184-2.089-3.5805-10.179-16.688-10.878-17.623-0.86642-1.1602-2.0337-1.6571-3.161-1.6412zm0.20568 2.6339c0.77504 0 1.0935 0.48761 9.8299 15.039 2.5808 4.2987 2.8857 4.9335 2.668 5.5562-0.25111 0.71841-1.2327 1.0546-1.8655 0.63872-0.16875-0.11092-1.248-1.7493-2.3983-3.6406-8.1352-13.376-9.5979-15.854-9.5979-16.26 0-0.54519 0.8062-1.3333 1.3638-1.3333z"/></g><path d="m24.519 43.766c-0.0612-0.15933-0.0758-3.4432-0.0326-7.2976l0.0787-7.0079 0.79504-1.3014c0.59677-0.97684 1.153-1.4828 2.2303-2.029l1.4352-0.7276h74.204c55.548 0 74.461 0.0772 75.229 0.30706 1.3755 0.4121 2.9671 1.8197 3.6479 3.226 0.52926 1.0933 0.55339 1.497 0.48628 8.1352l-0.0706 6.9848h-78.946c-56.948 0-78.977-0.0807-79.057-0.28969z" fill="#35afde"/><g fill="#130f2a"><path d="m159.69 39.92c-0.47855-0.13801-1.3395-0.73459-1.9132-1.3257-4.3426-4.4747 0.89409-11.55 6.4874-8.7646 2.0602 1.0258 3.0884 2.6315 3.078 4.8065-9e-3 1.7889-0.2604 2.5347-1.2551 3.7168-1.3764 1.6357-3.9624 2.2692-6.3972 1.567z"/><path d="m144.58 39.869c-3.3469-1.2699-4.5405-5.9015-2.2288-8.6488 2.1049-2.5015 6.2867-2.6107 8.4584-0.2208 1.1198 1.2323 1.4831 2.3187 1.3699 4.0966-0.12246 1.9233-1.0581 3.546-2.5453 4.4146-1.0877 0.63525-3.8148 0.82865-5.0541 0.35841z"/><path d="m129.08 39.822c-1.3906-0.49193-2.9271-2.1593-3.3141-3.5964-0.81132-3.013 1.2191-6.3227 4.2931-6.9978 2.0834-0.4576 4.8993 0.83004 5.9661 2.7282 2.6126 4.6485-1.8268 9.6766-6.9451 7.866z"/></g><g fill="#d1c1a7"><path d="m160.21 37.317c-1.037-0.64984-1.7183-2.0898-1.4758-3.1192 0.41401-1.7577 2.461-2.8477 4.0848-2.175 2.8081 1.1632 2.314 5.3465-0.67483 5.7132-0.77869 0.0955-1.2898-0.0152-1.9342-0.41901z"/><path d="m145.61 37.651c-1.3827-0.50546-2.3288-2.394-1.8424-3.6776 1.269-3.3488 5.8112-2.556 5.8112 1.0144 0 1.8981-2.1377 3.3326-3.9688 2.6633z"/><path d="m130.43 37.545c-1.8249-0.49957-2.7244-2.4211-1.9215-4.1047 0.88889-1.864 3.3229-2.1713 4.8202-0.60846 1.524 1.5908 0.80423 4.0966-1.3504 4.7012-0.43231 0.12131-1.129 0.12667-1.5482 0.0119z"/></g><g><path d="m11.001 153.26 0.0703-7.3422h185.47l0.1406 14.684h-185.75z" fill="#c8cdd1"/><path d="m36.385 214.01c-0.89881-0.3453-1.9052-1.0376-2.7781-1.911-1.4479-1.4487-2.3605-3.395-12.546-26.756-1.5227-3.4925-4.304-9.8076-6.1805-14.034-1.8765-4.226-3.4118-7.8872-3.4118-8.1359 0-0.42588 5.4043-0.45235 92.348-0.45235 82.793 0 92.364 0.042 92.504 0.40628 0.13707 0.3572-1.6413 4.4583-10.035 23.142-1.0133 2.2556-3.1486 6.9585-4.745 10.451-1.5964 3.4925-3.6355 8.0169-4.5312 10.054-1.4212 3.2323-1.831 3.909-3.2174 5.3125-2.7365 2.7701 5.0526 2.4947-70.097 2.479-65.747-0.0138-65.904-0.015-67.31-0.55524z" fill="#0489c2"/><path d="m113.85 118.79c-6.0739-6.7394-17.754-7.2741-24.328-1.0316-4.8761 0.8581-8.173-5.165-13.39-4.3552-4.8133-0.4219-9.8258 0.82508-13.696 3.7674-3.7919-1.5926-11.603-1.0798-9.372-7.2493 1.0674-2.2949 2.8309 1.3159 5.2535-1.0356 3.514-2.917 5.1955-5.1102 1.4241-8.9605-5.1556-5.0384-6.7216-5.0733-6.8823-14.16 0.24814-2.3612-0.53919-7.7562 0.77609-8.2235 1.8755 3.0165 4.5396 6.6339 8.5166 2.8548 5.2398-3.2027 1.2438-7.5521-1.2926-10.485-2.1208-3.7263-5.4538-7.1472-7.766-9.6756 0.085-2.5697 0.0268-5.1426 0.0439-7.7139 33.734 0.0382 67.469 0.0767 101.2 0.1323-0.0986 13.816 0.28554 27.665-0.39601 41.455 0.69057 4.8516 0.27245 9.7161 0.27028 14.586-1.4134 4.6279-5.3994-3.1153-8.2977-3.0533-4.9634-0.96714-2.3484 7.3833-7.4553 7.7-2.0345 0.96189-4.0263 0.41008-1.7683-1.6863 5.0028-7.7883 10.612-15.189 15.734-22.879 1.2359-3.8605-4.7967-5.1219-7.4257-6.4922-3.4788 1.8274-4.7798 6.7143-7.5669 9.6532-6.7557 9.6792-13.422 19.423-20.393 28.95-1.4232 0.66291-2.1419-1.5577-3.191-2.0974z" fill="#5b6d7b"/><path d="m78.805 110.43c-3.7835-1.3829-7.0725-2.7142-7.3088-2.9586-0.38772-0.40089-4.9935-11.107-4.9949-11.611-3.2e-4 -0.11566 0.96428-2.2939 2.1436-4.8405 1.1793-2.5466 2.5701-5.5827 3.0908-6.7469 0.52064-1.1642 1.1932-2.3646 1.4945-2.6677s3.2268-1.7197 6.501-3.148c6.2778-2.7386 21.257-9.4244 28.518-12.729 2.3698-1.0784 4.365-1.9608 4.4338-1.9608 0.0688 0 1.4445-0.59531 3.0572-1.3229 1.6126-0.7276 3.2074-1.3229 3.544-1.3229 0.8592 0 14.651 4.8781 15.121 5.3483 0.38062 0.38061 4.4265 9.4204 4.8703 10.882 0.17177 0.56561 0.0729 1.1559-0.39876 2.3812-0.72518 1.8839-4.9175 11.455-5.3232 12.153-0.27171 0.46746-2.1272 1.3031-28.423 12.8-7.4943 3.2768-14.797 6.4833-16.227 7.1256-1.4308 0.64225-2.7405 1.1596-2.9104 1.1498-0.16996-0.01-3.4046-1.1494-7.1882-2.5323z" fill="#1b1440"/><path d="m83.832 109.48c-0.72761-0.29308-3.3946-1.2632-5.9266-2.1557l-4.6037-1.6229-4.1323-9.8791 1.8601-4.0563c1.0231-2.231 2.279-5.0305 2.7909-6.2212l0.93077-2.1648 3.7466-1.6452c6.3379-2.7831 34.293-15.275 38.091-17.02 1.1358-0.52216 2.386-0.94839 2.7781-0.94718 0.39212 1e-3 2.9156 0.78438 5.6077 1.7404 2.6921 0.956 5.4306 1.9233 6.0854 2.1496 0.65484 0.22629 1.29 0.50099 1.4116 0.61045 0.34823 0.31365 4.1447 9.3338 4.1447 9.8476 0 0.57179-4.6963 11.597-5.1178 12.015-0.16842 0.16688-2.1517 1.1033-4.4072 2.081-6.1488 2.6651-11.666 5.0914-20.902 9.1912-13.808 6.1295-19.811 8.6664-20.438 8.6379-0.32779-0.0149-1.1913-0.26687-1.9189-0.55995z" fill="#fcd413"/><path d="m50.425 102.2c-2.9044-3.1651-6.6641-7.243-8.3548-9.062-1.6907-1.819-3.0765-3.3838-3.0795-3.4772-6e-3 -0.19551 4.3812-3.9311 4.6171-3.9311 0.0859 0 0.53944 0.44335 1.0079 0.98522 0.4685 0.54187 4.2153 4.5837 8.3263 8.9818 4.111 4.3981 7.4745 8.0952 7.4745 8.2157 0 0.40929-3.8465 4.0423-4.2798 4.0423-0.237 0-2.8072-2.5896-5.7117-5.7547z" fill="#fcd413"/><path d="m156.87 85.132c-0.0582-0.1819-0.16896-7.4935-0.24611-16.248-0.11844-13.439-0.0827-15.965 0.22988-16.224 0.26327-0.21849 2.0367-0.28271 6.1414-0.22239l5.7712 0.0848 1.4552 0.81839c1.7925 1.0081 3.0629 2.9168 3.3046 4.9648 0.0883 0.74828 0.12502 5.5688 0.0816 10.712l-0.0789 9.3517-7.0457 1.7917c-3.8752 0.98543-7.1818 1.8758-7.3481 1.9786s-0.6586 0.89257-1.094 1.7551c-0.81736 1.6192-0.9904 1.802-1.171 1.2375z" fill="#858f99"/><path d="m33.699 91.218c6e-3 -33.01 0.0122-33.418 0.54364-34.594 0.76115-1.685 2.231-3.0884 3.8815-3.7059 1.2436-0.46528 2.0636-0.52746 6.9561-0.52746h5.5463v11.081l-1.9844 1.3718c-1.304 0.90143-1.9844 1.546-1.9844 1.8797 0 0.27937 0.89297 1.7747 1.9844 3.323l1.9844 2.815v8.2857c0 7.0876-0.0559 8.2857-0.38627 8.2857-0.21245 0-0.95659-0.62508-1.6536-1.3891-0.69705-0.76398-2.0634-2.2208-3.0364-3.2372l-1.769-1.8482-0.87679 0.64147c-0.81204 0.59409-4.2735 3.6129-5.6886 4.9611-1.0153 0.96733-0.78348 1.5557 1.5817 4.0148 1.2066 1.2546 3.5534 3.7693 5.2151 5.5883s3.8923 4.2196 4.9569 5.3346l1.9356 2.0274-0.1464 8.1161-1.1906-0.025c-0.65485-0.0138-3.1552-0.11103-5.5562-0.21614-4.7252-0.20685-5.6079-0.0406-5.7703 1.0867-0.0872 0.60527 0.20387 0.9306 4.7808 5.3431 1.4174 1.3665 2.5771 2.5869 2.5771 2.712s-1.7562 0.22878-3.9026 0.23038c-4.8591 4e-3 -5.7012 0.14045-6.7197 1.0918-0.44591 0.41654-0.91722 0.75734-1.0474 0.75734-0.13786 0-0.23418-13.94-0.23079-33.404z" fill="#8595a4"/><path d="m57.743 79.568c-2.8119-3.8831-8.7004-12.383-8.6915-12.546 0.0162-0.29557 4.416-3.2572 4.819-3.2437 0.18084 6e-3 1.544 1.7622 3.0292 3.9026 1.4852 2.1404 3.4795 4.9986 4.4318 6.3517s1.7275 2.6032 1.7227 2.7781c-0.0108 0.39258-4.0184 3.3639-4.5217 3.3525-0.20042-5e-3 -0.55568-0.27246-0.78946-0.59531z" fill="#fcd413"/></g><path d="m-6.9597 77.451c-2.9957-4.8351-3.2098-5.2045-2.7947-4.8202 0.40427 0.37429 5.6503 8.9141 5.5423 9.0221-0.049 0.049-1.2854-1.8419-2.7476-4.2019z" fill="#878787" fill-opacity=".23587"/><g><path d="m-5.0952 90.862c-0.76577-1.8328-0.26123-3.0973 1.853-4.6442 1.5-1.0976 2.0108-1.0162 2.0108 0.32041 0 0.59149 0.25435 1.6667 0.56521 2.3893 0.31087 0.72263 0.51923 1.3492 0.46302 1.3923-0.0562 0.0431-0.8761 0.32801-1.822 0.63304-0.94589 0.30502-1.9288 0.63627-2.1842 0.73611-0.36176 0.14138-0.55764-0.0415-0.88583-0.82694z" fill="#d05627"/><path d="m8.4672 97.447c-0.40702-0.10494-0.45795-0.28631-0.30713-1.0938 0.0994-0.5324 0.23785-1.0258 0.30758-1.0963 0.2317-0.23453 1.1371 1.1769 1.143 1.782 6e-3 0.58724-0.18485 0.65529-1.1435 0.40814z" fill="#d05627"/><path d="m21.237 112.38c-1.4601-2.0661-11.091-18.855-11.091-19.334 0-0.56258-0.53312-0.87718-1.8195-1.0737-3.0524-0.4663-6.2753-2.113-7.0437-3.5988-0.21847-0.42247-0.39721-1.2891-0.39721-1.9258 0-1.608 0.8191-2.3552 2.758-2.516 4.3718-0.36254 9.718 3.3285 12.373 8.5421 0.66688 1.3097 1.4796 3.1235 1.806 4.0306s0.74667 1.7765 0.93382 1.9318c0.18714 0.15532 1.0946 0.3656 2.0166 0.46728l1.6764 0.18489v6.8756c0 5.9058-0.056 6.8849-0.39688 6.9416-0.21828 0.0363-0.58501-0.20015-0.81496-0.52554z" fill="#fefefe"/><path d="m3.7356 116.8c-3.2403-0.78547-5.4908-2.409-7.4499-5.3744-1.6775-2.5391-2.71-4.7188-3.4888-7.3649-1.5012-5.101-0.0587-8.6415 4.3843-10.761 1.5261-0.72795 1.988-0.82073 4.101-0.82368 2.946-4e-3 4.1646 0.58723 4.6672 2.2648 0.45675 1.5245 0.0548 2.2374-1.3921 2.4688-2.3853 0.38142-5.2595 2.2311-5.2595 3.3847 0 0.2625 0.0431 0.47727 0.0957 0.47727s0.85919-0.34618 1.7923-0.7693c2.3132-1.0489 4.4008-1.4116 6.067-1.0543 2.2886 0.49082 3.582 2.4626 2.9837 4.5487-0.26394 0.92031-0.7844 1.2437-3.0301 1.883-1.8143 0.51649-3.7496 1.8477-3.6102 2.4832 0.11469 0.52248 0.0582 0.53045 2.3943-0.33776 2.0476-0.761 4.5465-0.88987 5.699-0.29391 1.6249 0.84028 1.7814 3.051 0.35545 5.021-0.89958 1.2428-3.1274 2.8681-4.5954 3.3526-0.54907 0.18121-1.0681 0.54927-1.1533 0.81791-0.17991 0.56684-0.50033 0.57648-2.5608 0.077z" fill="#fefefe"/><path d="m147.6 116.78c-1.0186-0.8176-2.4887-1.9603-3.2668-2.5394-1.1165-0.83086-1.3871-1.1726-1.2837-1.6208 0.18604-0.80658 1.9376-4.6756 2.2649-5.0029 0.3972-0.3972 8.5034 5.8161 8.5031 6.5175-1.2e-4 0.25101-4.0249 4.138-4.2802 4.1336-0.0469-8.1e-4 -0.91876-0.67042-1.9374-1.488z" fill="#becfd7"/><path d="m125.07 83.301c-0.31076-0.15047-0.72581-0.57405-0.92235-0.94128-0.32942-0.61553-0.25942-0.85008 0.89573-3.0016 0.6892-1.2836 1.2531-2.3826 1.2531-2.4421 0-0.0595-0.97214-0.31828-2.1603-0.575-2.2992-0.49677-3.3959-1.2252-3.3959-2.2556 0-0.77346 1.2066-1.9246 1.815-1.7316 0.26577 0.0844 2.0741 0.51208 4.0185 0.95051 1.9444 0.43842 3.749 0.99057 4.0103 1.227 0.7809 0.70671 0.54511 1.6642-1.0956 4.4489-2.8297 4.8028-3.0262 4.9949-4.4184 4.3208z" fill="#130f2a"/></g><path d="m128.63 79.2c1.0449-1.7713 1.8997-3.4042 1.8997-3.6287 0-0.59927-0.72121-0.89605-4.0335-1.6598-4.413-1.0176-4.5998-1.032-4.9483-0.38077-0.64437 1.204 0.17156 1.7318 3.7796 2.4448 0.84955 0.16788 1.5983 0.44519 1.664 0.61623 0.0656 0.17105-0.42915 1.2863-1.0995 2.4784-1.33 2.3651-1.4142 3.1566-0.38974 3.6655 0.82981 0.41222 0.73733 0.51676 3.1278-3.5356z" fill="#9f9f9f" fill-opacity=".23587"/><path d="m115.79 88.307c-0.31375-0.40523-5.2545-11.225-5.4783-11.997-0.24939-0.86025 0.75566-1.9607 1.7862-1.9558 0.46238 2e-3 0.98603 0.0964 1.1637 0.20927 0.30114 0.19133 2.1261 3.9321 3.9261 8.0478 0.42789 0.97835 0.92198 1.782 1.098 1.7859 0.17599 4e-3 1.2315-0.39488 2.3456-0.88619 2.2105-0.97487 2.7682-0.96931 3.5585 0.0355 1.0724 1.3634 0.45519 2.0744-3.2805 3.7786-2.9132 1.329-4.6 1.6525-5.1193 0.98184z" fill="#130f2a"/><path d="m120.83 86.655c2.6214-1.2365 3.0816-1.5447 3.0816-2.0638 0-0.71654-0.45597-1.2452-1.074-1.2452-0.24144 0-1.3409 0.41672-2.4433 0.92604-1.1024 0.50932-2.1731 0.92604-2.3794 0.92604-0.23106 0-1.171-1.79-2.4482-4.6622-2.474-5.5637-2.6878-5.8794-3.7321-5.5136-0.449 0.15728-0.78738 0.48697-0.8344 0.81296-0.0727 0.50393 4.6552 11.174 5.2902 11.939 0.48886 0.58906 1.3886 0.36727 4.5396-1.119z" fill="#9f9f9f" fill-opacity=".23587"/><path d="m100.3 95.319c-0.77967-0.86782-5.2274-11.37-5.2139-12.312 0.0112-0.7781 0.53382-1.4301 1.4149-1.7651 0.95705-0.36387 1.884 0.0393 4.9075 2.1346 1.3145 0.91091 2.4299 1.6042 2.4788 1.5407 0.0489-0.0635 0.28834-1.6038 0.53222-3.4228 0.52291-3.9003 0.88471-4.5894 2.4724-4.709 0.74799-0.0564 1.1635 0.0566 1.4598 0.39687 0.22784 0.26162 1.1907 2.2021 2.1397 4.3121 3.4775 7.7318 3.5982 8.1777 2.4948 9.2143-0.82405 0.77416-1.8658 0.73956-2.5132-0.0835-0.285-0.36231-1.0211-1.9101-1.6358-3.4396-0.61469-1.5294-1.206-2.7808-1.3141-2.7808-0.10804 0-0.27349 1.0418-0.36765 2.3151-0.15159 2.0498-0.24999 2.3844-0.8587 2.92-0.95992 0.84462-1.2491 0.73049-5.1738-2.0419-0.52652-0.37193-0.52908-0.36253-0.14389 0.52917 0.21569 0.4993 0.82161 1.8372 1.3465 2.973 1.1551 2.4996 1.2101 3.3838 0.2572 4.1333-0.85194 0.67014-1.7279 0.70289-2.2827 0.0854z" fill="#130f2a"/><path d="m102.42 94.65c0.55527-0.42965 0.39875-0.9854-1.303-4.6263-1.1234-2.4035-1.5545-3.5949-1.3681-3.7812s1.0119 0.27328 2.6204 1.4587c1.2916 0.95188 2.6227 1.7307 2.9581 1.7307 0.82901 0 1.0582-0.66682 1.3436-3.9098 0.35637-4.0492 0.51869-4.0046 2.425 0.66567 1.589 3.8929 1.9683 4.567 2.5698 4.567 0.59458 0 1.4038-0.7727 1.4038-1.3405 0-0.89004-4.8089-11.586-5.3692-11.942-0.70088-0.44546-1.4976-0.20882-1.8969 0.56344-0.39637 0.7665-1.2006 5.3757-1.2006 6.881 0 0.42893-0.11987 0.85396-0.26638 0.94451-0.14651 0.0906-1.2478-0.54233-2.4474-1.4064-4.0027-2.8832-4.9256-3.2269-5.868-2.1856-0.54315 0.60017-0.52953 0.65756 1.1031 4.6492 1.9822 4.8464 3.2832 7.6561 3.6974 7.9855 0.39541 0.31436 0.9853 0.22073 1.5985-0.25373z" fill="#9f9f9f" fill-opacity=".23587"/><path d="m88.221 100.57c-0.6696-0.6696-0.66974-0.69828-0.0228-4.621 0.28507-1.7286 0.47075-3.2198 0.41263-3.3138-0.0882-0.14266-1.8999-1.3065-4.8403-3.1095-0.92332-0.56615-1.0579-1.6071-0.30378-2.349 1.133-1.1146 1.7568-1.0675 3.8839 0.29336 1.0615 0.67914 1.9822 1.1826 2.0461 1.1187 0.0639-0.0639 0.30758-1.0605 0.54163-2.2148 0.23405-1.1543 0.58905-2.3563 0.7889-2.671 0.44205-0.69625 1.7401-1.0239 2.4824-0.62661 0.69678 0.3729 0.69941 1.1817 0.0155 4.7708-0.29104 1.5274-0.52916 2.8688-0.52916 2.9809s1.1013 0.92537 2.4474 1.8072c3.1092 2.037 3.638 2.5372 3.638 3.4408 0 0.95851-1.174 1.9199-2.07 1.695-0.35073-0.088-1.5264-0.75976-2.6127-1.4927-1.0862-0.73299-2.0139-1.2928-2.0614-1.244-0.0476 0.0488-0.26908 1.1501-0.4923 2.4473-0.43034 2.501-0.82665 3.1659-2.0673 3.4685-0.51914 0.12664-0.85004 0.0265-1.2568-0.38019z" fill="#130f2a"/><path d="m90.399 99.552c0.19932-0.40018 0.51236-1.7694 0.69565-3.0427 0.23822-1.6549 0.43937-2.3151 0.70533-2.3151 0.20463 0 1.3709 0.6647 2.5917 1.4771 2.2747 1.5138 3.1466 1.721 3.6773 0.87395 0.4705-0.75096-3e-3 -1.2571-2.9844-3.1872-3.3599-2.1755-3.2017-1.7753-2.3885-6.043 0.69655-3.6555 0.69362-3.7042-0.22358-3.7042-1.1339 0-1.5506 0.68884-2.0421 3.3756-0.31299 1.7107-0.55897 2.4452-0.81892 2.4452-0.20437 0-1.1702-0.53578-2.1464-1.1906-1.0136-0.67998-2.0816-1.1906-2.4902-1.1906-0.74633 0-1.5964 0.87435-1.38 1.4194 0.0656 0.16519 1.3663 1.0683 2.8904 2.007 2.0711 1.2754 2.7702 1.8436 2.7672 2.249-2e-3 0.2983-0.22074 1.9317-0.48557 3.6297-0.29713 1.9052-0.39185 3.2476-0.24737 3.5057 0.38782 0.693 1.469 0.51512 1.8796-0.30924z" fill="#9f9f9f" fill-opacity=".23587"/><path d="m79.432 100.84c-5.1442-1.0949-5.19-1.1998-2.5688-5.8778 2.1829-3.8958 2.6356-4.4759 3.4935-4.4759 0.75334 0 1.7556 1.0308 1.7556 1.8055 0 0.31943-0.53833 1.5764-1.1963 2.7933l-1.1963 2.2125 2.4426 0.47444c2.8528 0.55412 3.8311 1.2337 3.526 2.4495-0.40961 1.632-1.1499 1.7052-6.2562 0.61841z" fill="#130f2a"/><path d="m84.972 100.1c0.10243-1.0573-0.15167-1.1948-3.328-1.8004-1.349-0.25721-2.5172-0.57196-2.596-0.69944-0.0788-0.12748 0.46493-1.3106 1.2083-2.6293 1.4141-2.5086 1.5027-3.1669 0.49826-3.7045-0.75688-0.40507-0.97159-0.15575-3.1114 3.6128-1.8775 3.3066-2.1648 4.1366-1.561 4.5097 0.52592 0.32504 7.1571 1.6479 8.0145 1.5988 0.68707-0.0393 0.80472-0.15865 0.87535-0.88775z" fill="#9f9f9f" fill-opacity=".23587"/><g><path d="m14.046 121.15c-0.61742-0.63657-1.5393-1.7433-2.0486-2.4594-0.50933-0.71611-1.0408-1.4543-1.181-1.6405-0.18504-0.24568 0.19229-0.75925 1.3762-1.873 1.8672-1.7566 2.701-3.3511 2.7094-5.181 9e-3 -2.062-0.65465-3.193-2.5315-4.3111-0.43813-0.26103-0.44968-0.411-0.13871-1.8006 0.18658-0.83371 0.46174-1.475 0.61146-1.4251 0.14973 0.0499 1.2514 1.7531 2.4482 3.7849 1.1968 2.0318 3.1559 5.2998 4.3535 7.2622 1.9572 3.2069 2.1601 3.6621 2.0052 4.4979-0.38088 2.0552-2.7116 3.9904-5.0382 4.1834-1.4161 0.11744-1.4645 0.0979-2.5659-1.0377z" fill="#d05627"/><path d="m45.372 119.23c-4.273-4.2188-4.2727-4.2221 0.37221-3.8662 4.2288 0.32398 6.8492 0.85141 11.183 2.2508 4.6416 1.4989 9.5756 3.9612 9.5756 4.7786 0 0.31695-1.3675 0.37158-8.7974 0.35144l-8.7974-0.0239z" fill="#4cc0e5"/><path d="m150.82 122.86c-0.26576-0.26577-0.21182-1.7597 0.0953-2.6408 0.16011-0.45929 1.3556-1.7339 2.9104-3.103 2.4802-2.1839 3.068-3.0437 2.3741-3.4726-0.14552-0.0899-0.26458-0.33509-0.26458-0.54479 0-1.1543 5.2884 0.70615 6.9311 2.4383 0.39238 0.41376 0.96217 1.3148 1.2662 2.0024 0.55026 1.2444 1.1019 4.5359 0.86579 5.166-0.0948 0.25302-1.7542 0.33072-7.063 0.33072-3.8165 0-7.0184-0.0794-7.1154-0.17638z" fill="#47b8e2"/><path d="m129.86 122.76c-0.4318-0.69867 2.166-3.4473 5.1667-5.4666 1.444-0.97175 4.0145-2.2726 5.3366-2.7008l0.97097-0.31446 2.975 2.3286c4.8966 3.8327 4.5891 3.4766 4.3121 4.9931l-0.23822 1.3042-9.1741 0.0696c-6.305 0.0478-9.2288-0.019-9.3491-0.21371z" fill="#ddaf06"/><path d="m118.73 122.67c-0.0785-0.20449 0.95527-1.8736 2.3351-3.7703 1.3618-1.8718 3.7865-5.3084 5.3884-7.6367 5.6543-8.2187 10.809-15.65 13.214-19.05 1.3381-1.8918 3.065-4.3741 3.8377-5.5163 0.77268-1.1422 1.5454-2.1306 1.7173-2.1966 0.42774-0.16414 5.1507 3.027 5.1507 3.4801 0 0.20004-0.69774 1.2938-1.5505 2.4305-0.8528 1.1367-3.0769 4.2695-4.9425 6.9616-1.8656 2.6921-4.6732 6.7403-6.2393 8.9958-5.1239 7.3799-9.4229 13.864-10.13 15.28l-0.69421 1.3891h-3.9726c-3.1431 0-4.002-0.0766-4.1134-0.36694z" fill="#ddaf06"/><path d="m91.229 122.76c-0.51555-0.17906-1.4436-1.7108-1.4436-2.3827 0-0.63332 2.7044-2.7116 4.6302-3.5582 2.3624-1.0386 3.868-1.3296 6.8792-1.3296 3.5238 0 5.8572 0.63679 8.2924 2.263 2.0063 1.3397 4.8514 4.1771 4.7446 4.7317-0.0708 0.36752-1.3426 0.4137-11.393 0.4137-6.2223 0-11.492-0.062-11.71-0.13774z" fill="#e3e7ea"/><path d="m69.148 121.81c-0.65484-0.6025-1.9943-1.5362-2.9766-2.0748s-1.7859-1.069-1.7859-1.1786c0-0.71278 2.821-2.0852 5.7459-2.7954 2.7042-0.6566 7.1648-0.44515 9.7322 0.46134 2.5054 0.88461 5.4503 2.6817 7.1916 4.3886 2.4158 2.3681 2.664 2.2944-7.7248 2.2944h-8.9917z" fill="#71d4e5"/><path d="m195.75 124.93c-0.53494-0.54135-17.349-9.9776-30.48-17.106l-5.8488-3.175-1.326-4.101c-0.7293-2.2556-1.6012-4.9748-1.9374-6.0428l-0.61144-1.9417 0.61992-1.101c0.34095-0.60554 1.4511-2.6176 2.467-4.4713 1.7142-3.1278 1.9166-3.3881 2.8132-3.6176 8.3935-2.1493 10.852-2.7358 11.352-2.7081 0.32818 0.0182 1.0426 0.31949 1.5875 0.6696 1.2295 0.78989 21.568 12.327 33.343 18.914 1.8809 1.0522 2.2256 1.3551 2.4478 2.1507 1.5025 5.3802 2.9036 10.693 2.9036 11.01 0 0.21618-0.58063 1.3695-1.2903 2.563-0.70966 1.1935-1.7514 3.0629-2.3151 4.1543l-1.0248 1.9844-5.2917 1.3987c-6.0675 1.6038-7.0418 1.7905-7.4083 1.4196z" fill="#fcd413"/><path d="m172.22 123.42c-0.35625-0.26945-1.1896-0.38846-2.7203-0.38846-1.54 0-2.2344-0.0999-2.2985-0.33072-0.0505-0.18191-0.22449-1.3428-0.3867-2.5797-0.65842-5.0205-3.4568-7.9784-8.5582-9.0461-0.83197-0.17414-1.5511-0.44242-1.5981-0.59619-0.047-0.15377-0.0401-1.5595 0.0154-3.1239 0.0741-2.0912 0.19104-2.8443 0.44153-2.8443 0.18738 0 0.48119 0.33919 0.65291 0.75376s0.75171 0.99415 1.2889 1.288 4.0425 2.2295 7.7897 4.3016l6.813 3.7674v4.6019c0 4.2096-0.0395 4.6012-0.46302 4.5935-0.25466-5e-3 -0.69413-0.18322-0.97661-0.39688z" fill="#858f99"/><path d="m162.65 95.583c-2.0653-4.439-2.2907-5.0481-2.12-5.7284 0.20443-0.8145 0.8956-1.0292 5.2531-1.6315 3.2487-0.44906 3.3901-0.4485 3.9026 0.0153 0.98372 0.89025 0.54477 2.3013-0.85524 2.7494-0.47406 0.1517-1.4897 0.35552-2.2569 0.45294-0.76725 0.0974-1.4494 0.26516-1.5159 0.37277-0.0665 0.10761 0.29335 1.1516 0.79969 2.32 0.50633 1.1684 0.92061 2.2924 0.92061 2.4977 0 0.73256-1.0451 1.5314-2.0034 1.5314-0.91087 0-0.94197-0.0377-2.1246-2.5797z" fill="#130f2a"/></g><path d="m165.67 97.316c0.51795-0.51796 0.37151-1.35-0.62086-3.5276-0.51609-1.1325-0.88378-2.2013-0.81708-2.3751s0.81638-0.39718 1.666-0.49637c3.0713-0.35858 4.0224-0.84608 3.6326-1.8619-0.0794-0.20702-0.3005-0.4363-0.49123-0.50949-0.58171-0.22322-7.3929 0.88799-7.7778 1.2689-0.30362 0.30045-0.12132 0.89176 1.1584 3.7571 0.83528 1.8703 1.6371 3.5494 1.7818 3.7313 0.33341 0.41909 1.0559 0.4256 1.4683 0.0132z" fill="#9f9f9f" fill-opacity=".23587"/><path d="m173.78 104.66c-0.55091-0.55091-0.64998-0.90212-0.65305-2.3151-2e-3 -0.91612-0.0741-1.9286-0.16024-2.2499-0.15465-0.57682-0.1834-0.57076-2.2698 0.47824-2.3905 1.2019-3.215 1.239-4.0023 0.17976-0.91409-1.2298-0.38978-1.8131 3.1364-3.4892 2.4919-1.1845 3.0509-1.5517 2.9437-1.9338-0.0728-0.2594-0.21276-1.64-0.31109-3.068-0.15578-2.2624-0.11911-2.6623 0.28505-3.1088 1.1932-1.3185 3.0233 2e-3 3.0306 2.1863 2e-3 0.48017 0.0748 1.308 0.16275 1.8396l0.15984 0.96654 1.6232-0.7679c0.89275-0.42234 2.0101-0.76799 2.4831-0.76811 0.95717-2.3e-4 1.9182 0.77448 1.9182 1.5463 0 0.72485-0.68556 1.2255-3.444 2.515l-2.4912 1.1646 0.08 3.3091c0.0774 3.2003 0.06 3.3231-0.53086 3.737-0.83034 0.5816-1.1989 0.53995-1.9604-0.22154z" fill="#130f2a"/><path d="m175.56 100.92-0.0782-3.4607 2.894-1.347c1.5917-0.74087 2.9614-1.4561 3.0438-1.5894 0.23805-0.38517-0.60103-1.3869-1.1617-1.3869-0.28038 0-1.4005 0.44075-2.4892 0.97945-1.0887 0.5387-2.0524 0.90654-2.1415 0.81742-0.0891-0.0891-0.25733-1.2075-0.3738-2.4854-0.17585-1.9294-0.31113-2.4038-0.79789-2.798-0.45909-0.37175-0.70146-0.4129-1.1182-0.18986-0.46229 0.24741-0.51191 0.46381-0.37824 1.6498 0.0846 0.75077 0.22985 2.2122 0.32274 3.2476l0.16889 1.8825-3.2185 1.5398c-2.9281 1.4009-3.2114 1.5986-3.1395 2.1918 0.16169 1.3344 0.78871 1.3194 3.525-0.0848 2.9789-1.5286 3.0261-1.5073 3.0322 1.3682 5e-3 2.5438 0.31003 3.3192 1.261 3.2098l0.72748-0.0837z" fill="#9f9f9f" fill-opacity=".23587"/><path d="m186.37 111.87c-0.29671-0.31848-0.53947-0.81242-0.53947-1.0976 0-0.53324 2.1209-4.6549 2.8812-5.5993 0.41073-0.51015 0.40702-0.51385-0.10313-0.10287-1.1517 0.92784-2.9982 1.8227-3.7612 1.8227-1.1819 0-1.5136-0.59968-1.6628-3.0062l-0.13229-2.1341-1.288 2.2394c-1.5339 2.667-2.1863 3.43-2.9326 3.43-0.85605 0-1.7325-0.74466-1.7325-1.4719 0-0.68201 5.0514-9.9295 5.8725-10.751 0.70758-0.70757 1.7264-0.59228 2.6145 0.29589 0.76902 0.76903 0.77339 0.79136 0.77339 3.9541v3.1807l2.2849-1.3448c2.796-1.6456 4.2776-1.926 5.2668-0.99668 0.35768 0.33602 0.65033 0.84047 0.65033 1.121 0 0.50686-4.5289 8.5353-5.7423 10.179-0.75389 1.0215-1.6624 1.1257-2.4495 0.28083z" fill="#130f2a"/><path d="m190.01 108.48c3.847-6.4929 4.0685-6.9609 3.6069-7.62-0.71521-1.0211-1.8556-0.72055-5.4388 1.4335-2.3331 1.4025-2.346 1.3911-2.3503-2.081-4e-3 -3.6311-0.11332-4.0772-1.1226-4.5992-0.73528-0.38022-0.83015-0.37451-1.2747 0.0768-0.4446 0.45127-3.9336 6.4572-5.2313 9.005-0.31071 0.61005-0.49549 1.2901-0.41062 1.5113 0.21118 0.55034 1.1094 0.79676 1.5553 0.42669 0.36676-0.30438 3.1273-5.009 3.4645-5.9044 0.0986-0.2618 0.37265-0.43866 0.609-0.39301 0.36731 0.0709 0.41644 0.43361 0.33825 2.4966-0.14849 3.9175 0.48425 4.3353 3.5539 2.3468 1.8269-1.1834 2.4907-1.4315 2.4907-0.93085 0 0.14599-0.77391 1.6014-1.7198 3.2343-0.94588 1.6328-1.7198 3.0816-1.7198 3.2195 0 0.44696 0.8824 1.2401 1.2919 1.1612 0.21914-0.0422 1.28-1.5646 2.3575-3.3832z" fill="#9f9f9f" fill-opacity=".23587"/><path d="m193.82 116.11c-1.6445-0.88391-3.1808-1.8983-3.414-2.2542-0.4033-0.61551-0.37944-0.73369 0.48797-2.4176 0.50159-0.97376 1.8426-3.4161 2.9799-5.4274 2.2691-4.0126 2.8447-4.5574 4.0817-3.8631 1.4781 0.82965 1.3788 1.3561-1.1116 5.8934-1.2556 2.2876-2.2829 4.2716-2.2829 4.4089 0 0.13729 0.50601 0.50376 1.1245 0.81439 1.9645 0.98667 2.8443 1.7833 2.8443 2.5756 0 0.89764-0.67602 1.9008-1.2718 1.8873-0.24641-6e-3 -1.7935-0.73337-3.438-1.6173z" fill="#130f2a"/><path d="m197.95 115.77c-0.0521-0.36402-0.73373-0.91586-2.0622-1.6694-1.0914-0.61913-2.0229-1.2408-2.0701-1.3816-0.0471-0.14075 0.98513-2.2389 2.2939-4.6626s2.3156-4.5735 2.2374-4.7773c-0.19278-0.50237-1.0155-0.91562-1.4732-0.73998-0.59707 0.22911-6.063 10.096-5.9667 10.771 0.0639 0.44789 0.80751 0.97576 3.1266 2.2196 2.8286 1.5172 3.0761 1.6022 3.5174 1.208 0.26106-0.2332 0.43966-0.66869 0.39687-0.96776z" fill="#9f9f9f" fill-opacity=".23587"/><path d="m199.21 117.42c-1.1207-1.6-0.19263-2.5512 2.8491-2.9201l2.223-0.26957-0.88992-2.0536c-1.0164-2.3453-1.046-2.5595-0.46791-3.3848 0.33114-0.47277 0.62847-0.58515 1.3808-0.52189 1.0753 0.0904 0.95358-0.087 2.8171 4.1054 1.8186 4.0913 1.6435 4.6699-1.5022 4.9627-1.0599 0.0986-2.6414 0.28881-3.5146 0.42262-2.236 0.34267-2.433 0.31949-2.8954-0.34076z" fill="#130f2a"/><path d="m204.45 116.87c2.1099-0.23154 2.9537-0.43028 3.1501-0.74193 0.2035-0.32296-0.10367-1.2647-1.273-3.9026-1.6132-3.6394-1.9589-3.9952-2.8862-2.9706-0.43735 0.48326-0.41515 0.60416 0.48816 2.6586 0.52048 1.1838 0.94634 2.3166 0.94634 2.5174 0 0.24952-0.48143 0.41544-1.5214 0.52435-3.0835 0.32292-3.6312 0.49274-3.7251 1.1551-0.15429 1.0885 0.12629 1.4107 1.0758 1.2354 0.47485-0.0877 2.1602-0.30171 3.7452-0.47566z" fill="#9f9f9f" fill-opacity=".23587"/><g><path d="m107.3 131.43 0.08-1.3891 1.1245-0.0814c0.94284-0.0682 1.1245-3e-3 1.1245 0.40274 0 0.62316-1.5057 2.4568-2.0175 2.4568-0.30598 0-0.37398-0.30327-0.31147-1.3891z" fill="#e3e7ea"/><path d="m160.82 135.67c-0.0668-0.1819-0.15232-1.5214-0.19013-2.9766l-0.0688-2.6458 1.5214-0.0794c1.412-0.0736 1.5214-0.0378 1.5214 0.49856 0 0.60446-2.2314 5.5339-2.5051 5.5339-0.0865 0-0.212-0.14883-0.27876-0.33073z" fill="#47b8e2"/><path d="m112.67 135.45c-1.1642-0.87665-2.1574-1.7101-2.2072-1.8521-0.0498-0.142 0.42648-1.0252 1.0583-1.9627l1.1488-1.7045 3.7703-8e-3c2.99-7e-3 3.7703 0.0654 3.7703 0.34824 0 0.54119-4.8176 6.7942-5.2238 6.7802-0.1101-4e-3 -1.1527-0.72416-2.3168-1.6008z" fill="#ddaf06"/><path d="m107.42 139c-0.2854-0.2854-0.20268-5.0678 0.0908-5.2492 0.14694-0.0908 0.55212 0.17351 0.90039 0.5874 0.34826 0.41389 0.94241 0.91801 1.3203 1.1203s0.68711 0.47512 0.68711 0.60638c0 0.27089-2.431 3.103-2.6679 3.1082-0.0849 2e-3 -0.23372-0.076-0.33073-0.17305z" fill="#caddeb"/><path d="m175.77 129.91c0-12.933 0.0278-13.757 0.46302-13.742 0.25466 9e-3 1.7727 0.75782 3.3734 1.6638l2.9104 1.6473 0.1376 24.189h-6.8845z" fill="#9da6ad"/><path d="m160.52 143.26c-0.38118-0.99333 0.1964-2.8845 1.5031-4.9215 1.3147-2.0495 3.3636-6.0355 3.914-7.6143l0.28436-0.81573h2.6727c1.922 0 2.9005-0.11779 3.4838-0.41939 0.48197-0.24924 0.90784-0.32256 1.0497-0.18072 0.13345 0.13345 0.20753 3.322 0.16804 7.2324l-0.0706 6.9937-6.4226 0.0709c-5.6405 0.0622-6.4421 0.0202-6.5824-0.34543z" fill="#858f99"/><path d="m138.73 143.39c0-0.15406 1.2799-1.9861 2.8443-4.0712 1.5644-2.0851 3.6054-5.0547 4.5357-6.5991l1.6915-2.8079h6.0098v13.758h-7.5406c-5.1292 0-7.5406-0.0896-7.5406-0.2801z" fill="#47b8e2"/><path d="m33.694 136c0-5.7746 0.0782-7.6729 0.31625-7.6729 0.17394 0 0.65772 0.32742 1.0751 0.7276l0.75882 0.72761 5.2749 0.0816c3.5058 0.0542 5.2749 0.17613 5.2749 0.36351 0 0.15507-0.46834 0.98329-1.0408 1.8405-1.6536 2.4764-2.2114 4.2122-2.241 6.9748-0.014 1.3097 0.0742 2.8873 0.19616 3.5057l0.22169 1.1245h-9.8361z" fill="#8595a4"/><path d="m184.93 143.72c-0.23914-0.38693-0.22453-7.23 0.0159-7.4705 0.27006-0.27006 2.4794 0.26358 3.6949 0.89246 1.3259 0.686 2.4627 1.7594 3.0199 2.8517 0.65158 1.2772 0.71107 3.5506 0.0991 3.7854-0.63604 0.24407-6.6747 0.19183-6.8298-0.0591z" fill="#fefefe"/><path d="m119.7 141.13-2.7573-2.6903 2.6479-3.5358c1.4563-1.9447 2.8596-3.8632 3.1185-4.2634l0.47058-0.7276h10.95c10.442 0 10.95 0.0225 10.95 0.48516 0 0.60948-3.8098 6.3152-6.9705 10.439l-2.3979 3.1289-13.253-0.1461z" fill="#ddaf06"/><path d="m107.55 143.73c-0.66204-0.22067-0.21223-1.214 1.3734-3.033 0.91905-1.0543 1.8852-2.2443 2.1471-2.6445 0.26185-0.40018 0.65424-0.72761 0.87197-0.72761 0.63396 0 6.4224 4.9017 6.4224 5.4386 0 0.17462-0.14883 0.43781-0.33073 0.58487-0.31095 0.25139-9.8348 0.59812-10.484 0.38169z" fill="#caddeb"/><path d="m92.61 143.74c-0.069-0.11297 0.21174-1.2174 0.62379-2.4544 0.99071-2.974 1.4042-6.166 1.175-9.0706l-0.18333-2.3238 6.2753 0.1496v13.758l-3.8827 0.0731c-2.1355 0.0402-3.9391-0.0193-4.0081-0.13229z" fill="#e3e7ea"/><path d="m80.066 143.72c-0.17972-0.11414-0.55359-0.86684-0.83083-1.6726-1.3669-3.9729-4.5578-8.1055-8.0367-10.409-0.83674-0.55394-1.5214-1.1689-1.5214-1.3666 0-0.29719 1.9434-0.35942 11.224-0.35942h11.224l0.19486 0.8599c0.35606 1.5712 0.20307 6.3325-0.26143 8.1359-0.50414 1.9574-1.6119 4.5149-2.086 4.8163-0.42065 0.26736-9.4845 0.26291-9.906-5e-3z" fill="#71d4e5"/><path d="m54.393 143.72c-0.25948-0.16593-0.31935-1.7371-0.26458-6.9429l0.0708-6.7284 3.9688 0.0316c4.6871 0.0374 7.1339 0.48858 9.7896 1.8054 3.3804 1.6761 6.8488 5.1879 8.6257 8.7336 1.7495 3.491 2.7604 3.1773-10.478 3.2514-6.2574 0.035-11.528-0.0328-11.712-0.15078z" fill="#96e0ec"/><path d="m49.493 143.77c-0.10372-0.10373-0.18859-3.5382-0.18859-7.6322 0-5.4367-0.0856-7.5292-0.3175-7.7611-0.22704-0.22705-1.9419-0.31861-6.0193-0.3214-4.0481-3e-3 -5.8936-0.10047-6.3632-0.33686-0.82729-0.41644-1.0208-1.6157-0.3757-2.3285 0.44837-0.49545 1.8315-0.50577 67.753-0.50577 66.943 0 67.298 3e-3 67.825 0.52916 0.62285 0.62285 0.67407 1.288 0.15401 2-0.35015 0.47935-0.79501 0.51893-6.6738 0.59373-4.526 0.0576-6.3553 0.16928-6.5 0.39687-0.11075 0.17421-0.20318 3.6802-0.2054 7.7912l-4e-3 7.4745h-2.6378l-0.1402-15.478-50.076-0.135-0.15989 0.59665c-0.0879 0.32816-0.16151 3.8411-0.1635 7.8066-3e-3 6.6874-0.0372 7.2102-0.46663 7.2135-0.25466 2e-3 -0.70115 0.0631-0.99219 0.13573-1.1918 0.29755-1.2295 0.0833-1.3576-7.7097-0.0667-4.0582-0.17199-7.528-0.23395-7.7107-0.0895-0.26389-5.2355-0.31822-25.057-0.26459l-24.945 0.0675-0.13229 7.8052-0.13229 7.8052-1.2005 0.0784c-0.66026 0.0431-1.2853-7e-3 -1.3891-0.11024z" fill="#b9c1c3"/><path d="m45.663 143.61c-0.55571-0.6696-0.92461-2.8819-0.79758-4.7831 0.1626-2.4335 1.1668-5.0825 1.9266-5.0825 0.50872 0 0.52772 0.181 0.52772 5.0271v5.0271l-0.68411 0.0795c-0.37625 0.0437-0.81393-0.0769-0.97261-0.2681z" fill="#96e0ec"/><path d="m30.994 107.22c-0.0672-19.754-0.0503-39.251 0.0377-43.326 0.15385-7.1276 0.1837-7.4534 0.78764-8.599 0.9724-1.8444 1.7844-2.7853 3.2777-3.7981 2.815-1.9092-2.88-1.7699 69.249-1.6941l64.946 0.0683 1.5875 0.77802c2.0694 1.0142 3.8939 2.9033 4.6757 4.8413 0.60513 1.5001 0.61623 1.7048 0.69471 12.818l0.0797 11.294 1.7728 0.97263c0.97506 0.53495 2.2789 1.2683 2.8973 1.6297l1.1245 0.65709v-36.034h-157.19l0.12907 1.1245c0.071 0.61846 0.13647 22.288 0.14552 48.154l0.0165 47.03h5.8893z" fill="#9da6ad"/><path d="m91.505 155.61c-1.5141-0.67814-2.0251-2.8495-0.99525-4.229l0.52308-0.70069 25.133-0.1374 0.70007 0.70008c0.96356 0.96356 0.98806 2.7452 0.0507 3.6826l-0.64942 0.64943h-8.172c-4.4946 0-9.9471 0.0612-12.117 0.13594-2.1696 0.0748-4.1828 0.0293-4.4738-0.10106z" fill="#1c1541"/></g><path d="m116.39 154.4c0.35719-0.35718 0.64942-0.95791 0.64942-1.3349s-0.29223-0.97775-0.64942-1.3349l-0.64943-0.64943h-24.063l-0.54837 0.69714c-0.69414 0.88246-0.70239 2.0593-0.0192 2.7424 0.51367 0.51367 0.88194 0.52917 12.58 0.52917h12.051z" fill="#9f9f9f" fill-opacity=".23587"/><path d="m196.15 169.35c0-0.17324 0.59531-1.6569 1.3229-3.2971l1.3229-2.9821-4e-3 -9.2372c-2e-3 -5.0805-0.095-9.3803-0.20616-9.5552-0.11958-0.18812-1.0093-0.35019-2.1788-0.39688l-1.9767-0.0789-0.15107-1.8521c-0.18554-2.2745-0.87095-3.6748-2.5012-5.1097-1.2352-1.0872-4.2296-2.5043-5.9761-2.828l-0.95545-0.17713-0.19047-4.9095c-0.13886-3.5791-0.10853-4.9602 0.11192-5.0964 0.40489-0.25024 2.6798-0.0472 4.6353 0.41378 2.057 0.48487 7.0154 2.9318 9.0689 4.4755 5.6022 4.2113 9.2939 11.764 10.136 20.736 0.87393 9.3133-1.9627 16.218-7.8543 19.119-1.8423 0.90698-4.6036 1.3725-4.6036 0.77605z" fill="#fefefe"/><g fill="#130f2a"><path d="m127.35 192.37c-2.2858-1.2089-3.4692-3.1936-3.6366-6.0988-0.42638-7.3992 7.2842-10.79 11.046-4.8579 1.9329 3.0478 1.6766 7.0643-0.60941 9.5523-0.60872 0.66251-1.4899 1.3656-1.9582 1.5624-1.229 0.51652-3.7206 0.43521-4.8422-0.15801z"/><path d="m77.383 192.88c-1.59-0.37541-3.0104-1.5893-3.8691-3.3068-0.68912-1.3782-0.79204-1.8665-0.78078-3.7042 0.0148-2.4211 0.54386-3.89 1.9971-5.5451 2.8611-3.2586 7.6997-2.289 9.5596 1.9156 1.8342 4.1466-0.087 9.392-3.8494 10.509-1.4577 0.43289-1.7298 0.44456-3.0575 0.13108z"/><path d="m101.12 199.26c-2.4445-0.95607-4.7176-3.0996-5.5352-5.2197-0.50533-1.3104-0.72755-3.3293-0.45311-4.1166 0.28618-0.82094 1.1292-1.1638 2.2004-0.89492 0.75915 0.19053 1.1813 1.0599 1.1813 2.4329 0 2.432 2.5072 4.5487 5.6766 4.7925 1.3894 0.10687 1.7899 0.0226 3.0501-0.6416 1.8627-0.98178 2.88-2.3969 3.1492-4.3806 0.247-1.8201 0.62626-2.3142 1.7764-2.3142 1.2858 0 1.8113 0.89842 1.6185 2.767-0.31177 3.0208-2.4478 5.9462-5.349 7.3257-1.3698 0.65135-1.8958 0.75317-3.8365 0.74267-1.5216-8e-3 -2.6467-0.16773-3.4788-0.49315z"/></g><g transform="translate(351.59 -558.98)" fill="#130f2a"><path d="m-90.206 797.7c1.664 0.084 2.1093 0.2134 2.9549 0.85835 2.3687 1.8067 2.2654 5.0351-0.22066 6.891-0.59777 0.44627-1.1241 0.54572-2.8939 0.54777-2.4285 3e-3 -3.8352 0.53718-4.7945 1.8206-0.51218 0.68518-0.55194 1.1812-0.67645 8.4481-0.123 7.1778-0.17014 7.7859-0.67541 8.646-0.87391 1.4876-2.0431 2.1178-3.9274 2.1167-1.152-7.1e-4 -1.8652-0.15408-2.4898-0.53485-0.50536-0.30811-1.0901-1.0065-1.3834-1.6526-0.47524-1.0469-0.50822-1.8486-0.51366-12.441-6e-3 -10.913 0.0139-11.36 0.53898-12.389 0.63231-1.2394 2.1529-2.0713 3.8034-2.0805 1.2282-7e-3 3.2174 0.88701 3.6112 1.6226 0.26439 0.49402 0.32418 0.47645 1.2645-0.3731 1.2724-1.1496 2.9343-1.6052 5.4023-1.4805z"/><path d="m-122.46 797.44c-2.2125 0.0858-4.4099 0.61381-6.29 1.6133-4.9138 2.6123-7.6528 7.4628-7.6538 13.554-1e-3 7.2056 3.8567 12.311 10.798 14.289 0.93484 0.26637 2.4066 0.35397 5.026 0.29817 3.0788-0.0656 3.9608-0.17889 5.2229-0.67024 4.752-1.8499 6.5947-5.3978 4.0995-7.8931-1.4269-1.4268-2.5765-1.4382-5.994-0.0594-2.4829 1.0018-2.9211 1.0992-4.4018 0.9803-1.9039-0.15283-4.0895-1.2047-4.917-2.3668l-0.52762-0.74104h2.2324c3.667 0 8.4304-1.057 11.312-2.5099 1.2243-0.61718 2.8317-2.1754 3.4215-3.3171 1.5343-2.9703 0.43848-7.3012-2.5425-10.049-2.3695-2.1841-6.0984-3.2704-9.786-3.1275zm0.65526 6.89c2.56 0.0287 4.5291 1.4697 4.5315 3.5951 8.8e-4 0.77687-0.12659 0.93114-1.1384 1.3787-2.1805 0.96452-9.6635 1.7982-10.057 1.1203-0.0634-0.10914 0.0567-0.78002 0.26716-1.4909 0.56336-1.9028 2.6729-3.9393 4.547-4.3889 0.63688-0.15279 1.2592-0.22108 1.85-0.21446z"/><path d="m-163.34 786.05c0.72205 0.0279 1.4568 0.21012 2.1404 0.56069 1.957 1.0035 2.126 1.6016 2.126 7.5205 0 2.795 0.0935 5.1399 0.20774 5.2105 0.11424 0.0706 0.97745-0.2499 1.9182-0.7121 1.6447-0.80805 1.8377-0.84026 5.0178-0.84026 3.0283 0 3.4341 0.0593 4.809 0.70383 2.7573 1.2926 4.5949 3.4136 5.825 6.7252 0.54478 1.4666 0.58794 2.1021 0.68213 9.9751 0.0977 8.1645 0.084 8.4427-0.46716 9.5813-0.76743 1.5853-1.8997 2.251-3.8287 2.251-1.902 0-3.1346-0.57277-3.9067-1.8144-0.57614-0.92647-0.60512-1.2523-0.73226-8.3721-0.12218-6.842-0.17397-7.4886-0.68161-8.4563-0.95608-1.8226-3.5598-2.7444-5.5847-1.9771-1.0137 0.38408-1.878 1.2311-2.5466 2.496-0.52126 0.98614-0.56653 1.5502-0.66353 8.2703-0.0988 6.8483-0.13258 7.2544-0.67231 8.0553-1.0984 1.6298-3.4075 2.3649-5.288 1.6831-1.3515-0.49001-2.2327-1.3567-2.5533-2.511-0.16149-0.58133-0.26368-7.6108-0.26459-18.245-1e-3 -17.115 4e-3 -17.309 0.55449-18.198 0.79246-1.2822 2.3203-1.9676 3.9088-1.9064z"/><path d="m-183.03 797.4c6.4882 0.0159 10.922 3.1656 9.5426 6.7784-0.93002 2.4352-2.8203 2.941-6.3996 1.712-3.4381-1.1805-6.1686-1.0785-6.1686 0.23048 0 0.77573 0.88397 1.2374 4.6245 2.4164 5.448 1.7172 7.2487 2.8691 8.5075 5.442 0.61784 1.2628 0.73185 1.8312 0.72864 3.6349-3e-3 1.7769-0.13088 2.4195-0.75551 3.8029-0.97624 2.1621-2.9147 3.9594-5.349 4.9594-1.5953 0.65532-2.1989 0.75076-5.2426 0.82889-2.7719 0.0711-3.8068-0.011-5.332-0.42271-4.2356-1.1434-6.442-3.0123-6.442-5.456 0-2.0011 1.347-3.6011 3.3497-3.9796 0.63961-0.1209 1.4158 0.10462 3.3073 0.96066 3.8614 1.7476 7.3741 1.7668 7.8068 0.0429 0.256-1.02-0.82314-1.7636-3.9553-2.7264-7.3995-2.2748-9.9999-4.9121-9.6511-9.7875 0.37734-5.2739 4.6846-8.4533 11.429-8.4367z"/><path d="m-215.16 797.57c-2.308-0.0145-4.7099 0.52001-6.6151 1.6071-4.6982 2.6809-7.4272 7.4389-7.4781 13.037-0.0421 4.6256 1.311 8.175 4.2287 11.092 1.8832 1.883 3.2163 2.7091 5.6307 3.4897 1.926 0.62273 5.7869 0.65546 7.5597 0.0641 0.71715-0.23923 1.816-0.775 2.4417-1.1906 1.3522-0.89812 1.4189-0.90638 1.8397-0.23255 0.48589 0.77802 2.2785 1.5937 3.5026 1.5937 2.034 0 3.591-1.0697 4.1987-2.8841 0.4076-1.2165 0.41665-21.687 0.0103-23.177-0.53571-1.9654-2.0256-3.0427-4.207-3.0427-1.5275 0-2.6162 0.46861-3.3988 1.4635l-0.53588 0.68109-1.1245-0.81494c-1.5306-1.1088-3.7449-1.6722-6.0529-1.6867zm0.82475 7.8729c1.6626 3.8e-4 3.3055 0.63996 4.5186 1.9182 1.8527 1.9525 2.4773 5.7978 1.3467 8.2925-1.344 2.9658-4.7922 4.6211-7.7504 3.7212v5.1e-4c-3.0495-0.92763-4.5601-3.1488-4.6002-6.7639-0.0265-2.3875 0.5193-3.9391 1.848-5.2524 1.2927-1.2778 2.9748-1.9165 4.6374-1.9162z"/><path d="m-236.4 797.81c1.4871-0.0696 3.0385 0.57117 3.9703 1.9539 1.1689 1.7346 0.97501 2.5579-3.2437 13.771-2.1078 5.6026-4.1618 10.663-4.5641 11.245-0.40311 0.58326-1.264 1.3327-1.9182 1.6697-0.99789 0.51394-1.5113 0.59769-3.22 0.52762-3.525-0.14457-3.8657-0.60518-6.6787-9.0289-1.1532-3.4535-2.1762-6.1864-2.2732-6.0735-0.0971 0.11282-1.0439 2.7055-2.1043 5.7614-2.2487 6.4809-2.5721 7.1816-3.8215 8.2786-1.552 1.3627-3.6343 1.6962-6.0151 0.96325-2.2207-0.68364-2.5527-1.2748-6.0131-10.697-0.72149-1.9645-2.1059-5.715-3.0763-8.3344-1.5419-4.1618-1.7504-4.9395-1.6531-6.1629 0.18988-2.388 1.7769-3.8225 4.2545-3.8458 1.544-0.0145 2.8667 0.5626 3.498 1.526 0.22867 0.34898 1.5698 4.095 2.9802 8.3246l2.5642 7.69 2.4918-7.4704c2.2193-6.6534 2.5965-7.5756 3.4484-8.4367 1.9742-1.9955 5.1835-1.9413 7.1086 0.11989 0.56031 0.5999 3.0992 7.7305 4.8374 13.586 0.31764 1.07 0.64948 1.9426 0.73742 1.9394 0.0879-3e-3 1.1569-3.1286 2.375-6.9453 1.2182-3.8167 2.4469-7.4408 2.7306-8.0538 0.67478-1.4579 2.0977-2.2378 3.5848-2.3074z"/><path d="m-303.56 786.15c1.5618 0 1.9128 0.0959 2.7864 0.76223 1.5925 1.2147 1.7374 1.8522 1.7374 7.6476v5.1191l1.9022-0.94361c1.8503-0.91799 1.9862-0.94382 4.9609-0.94361 2.7902 2.1e-4 3.1962 0.0648 4.6276 0.73484 3.2123 1.5039 4.9837 3.5731 6.1097 7.1376 0.63861 2.0216 0.65577 2.291 0.65577 10.143 0 7.5977-0.0316 8.1284-0.54002 9.125-0.76096 1.4916-1.8678 2.0937-3.8525 2.095-1.8754 1e-3 -3.0561-0.63008-3.9083-2.0893-0.4776-0.81776-0.53793-1.5596-0.67593-8.3334-0.17343-8.5128-0.23823-8.7793-2.4066-9.9007-2.2269-1.1516-4.977-0.30431-6.1536 1.896-0.55459 1.037-0.59438 1.501-0.71934 8.3742-0.12192 6.7055-0.17446 7.3475-0.67076 8.1923-0.90576 1.5418-2.995 2.3042-5.0772 1.8521-1.3147-0.28544-2.1856-0.98418-2.7347-2.1937-0.47534-1.0469-0.50143-1.999-0.50694-18.461l-6e-3 -17.357 0.59531-0.87488c1.0644-1.564 1.8819-1.9813 3.8768-1.9813z"/><path d="m-323.65 797.4c6.7234 0.0137 11.287 3.0399 10.083 6.6864-0.81126 2.4582-3.3867 3.2046-6.5009 1.8841-2.0942-0.888-4.6348-1.1327-5.548-0.53433-0.36813 0.24121-0.66921 0.54976-0.66921 0.68626 0 0.65326 1.4158 1.3698 4.9775 2.5187 2.1373 0.68945 4.3914 1.548 5.0095 1.9079 4.7835 2.7852 5.4269 9.6024 1.2769 13.527-2.522 2.3852-5.0006 3.2285-9.4015 3.1977-1.6842-0.0118-3.5251-0.20073-4.6478-0.47697-4.2818-1.0535-6.4764-2.8925-6.4745-5.426 2e-3 -2.1841 1.2296-3.7137 3.2442-4.0406 0.7121-0.11556 1.5109 0.10387 3.5342 0.971 3.0646 1.3134 5.2173 1.6204 6.7815 0.96687 0.83015-0.34686 0.99115-0.54272 0.99115-1.2004 0-1.0601-0.86256-1.5453-5.1588-2.9001-4.066-1.2822-6.107-2.4642-7.26-4.2049-1.0794-1.6296-1.412-2.9723-1.2935-5.2255 0.2693-5.1198 4.5537-8.3507 11.056-8.3375z"/><path d="m-344.41 797.85c1.8428 0 3.0018 0.67323 3.7698 2.1885 0.58948 1.163 0.59531 1.2843 0.59531 12.372 0 12.246 4e-3 12.211-1.5637 13.685-0.73267 0.68916-1.0533 0.7938-2.6122 0.85266-0.97739 0.0369-1.9558-4e-3 -2.174-0.092-0.63934-0.25577-1.6033-1.2196-2.0753-2.0753-0.38122-0.69105-0.44909-2.0946-0.52348-10.848-0.047-5.5298-8e-3 -10.794 0.0863-11.699 0.29802-2.8549 1.8671-4.3847 4.4974-4.3847z"/><path d="m-344.66 785.5c1.8629 0.0227 3.7469 0.9895 4.609 2.7704 2.0575 4.2503-2.5289 8.5751-6.8342 6.444-2.7174-1.3451-3.5066-5.0592-1.5922-7.4931 0.93255-1.1856 2.3684-1.739 3.8173-1.7213z"/><path d="m-384.66 787.61-1.0754 0.69711c-2.2041 1.4292-2.0733 0.23698-2.0733 18.882 0 14.891 0.0439 16.615 0.43822 17.33 0.56755 1.0288 1.479 1.8431 2.4727 2.2097 0.52787 0.19472 3.1866 0.26702 7.9375 0.21652l7.1438-0.076 2.6996-0.93741c3.6115-1.2538 5.3563-2.3265 7.8894-4.8524 5.3154-5.3002 7.0368-13.477 4.3734-20.775-1.8048-4.9452-5.94-9.2604-10.746-11.213-3.0338-1.2328-5.1076-1.481-12.354-1.481zm9.2956 8.185h5.1e-4c2.0229 0.0169 4.2795 0.16223 5.2932 0.42426 5.2474 1.3563 8.508 7.0161 7.6145 13.218-0.54188 3.7614-2.7917 6.8455-6.1562 8.4398-1.6897 0.80068-1.8444 0.82364-6.1423 0.9095l-4.4096 0.0884-0.0951-11.201c-0.0523-6.1603-0.0499-11.349 6e-3 -11.531 0.0771-0.25287 1.8659-0.36469 3.8887-0.34778z"/></g><ellipse cx="140.44" cy="194" rx="4.6122" ry="2.1819" fill="#f78a87"/><ellipse cx="69.777" cy="194.74" rx="4.6122" ry="2.1819" fill="#f78a87"/><path d="m24.519 43.766c-0.0612-0.15933-0.0758-3.4432-0.0326-7.2976l0.0787-7.0079 0.79504-1.3014c0.59677-0.97684 1.153-1.4828 2.2303-2.029l1.4352-0.7276h74.204c55.548 0 74.461 0.0772 75.229 0.30706 1.3755 0.4121 2.8982 1.908 3.4262 2.9385-2.3339-0.0444-131.12-1.2445-144.2 0.07382-2.2105 3.6295-2.3398 14.866-2.3398 14.866-5.4961 0.1495-10.748 0.38734-10.829 0.17836z" fill="#6fc6e7" fill-opacity=".77504"/><path d="m36.385 214.01c-0.96071-0.0643-1.9052-1.0376-2.7781-1.911-1.4479-1.4487-2.3605-3.395-12.546-26.756-1.5227-3.4925-4.304-9.8076-6.1805-14.034-1.8765-4.226-3.4118-7.8872-3.4118-8.1359 0-0.42588 5.4043-0.45235 92.348-0.45235 82.793 0 92.364 0.042 92.504 0.40628 0.13707 0.3572-0.1816 0.61089-2.359 5.8466-74.552 1.974-156.09-1.5102-164.83 3.5988-3.0486 1.7814 15.469 34.708 17.184 41.815-4.6536-0.0972-2.0492 0.14953-9.9251-0.37746z" fill="#19b5f9" fill-opacity=".67186"/><path d="m130.27 121.8c0.91977-1.2417 4.139-4.185 5.5646-4.9208 1.4256-0.73581 5.3347-2.3914 5.3347-2.3914l1.9775 1.6096s-5.1507 2.4834-6.4844 3.5411c-1.3337 1.0577-4.047 3.0812-4.047 3.0812h-2.6673z" fill="#fddf51" fill-opacity=".63922"/><path d="m118.95 122.37c0-0.48519 23.581-34.255 23.969-34.644 0.38816-0.38815 2.1349-3.2023 2.1349-3.2023l2.329 1.3586s-11.839 14.653-14.265 18.05-12.615 18.826-12.615 18.826z" fill="#fddf51" fill-opacity=".50087"/><path d="m33.911 124.43s-0.16687-58.524-0.0647-59.443c0.10213-0.91922-0.51068-6.4346 0.51068-7.9666 1.0214-1.532 1.6342-2.962 3.4726-3.779s7.0474-0.71496 8.0688-0.71496c1.0214 0 4.5806 0.033 4.5806 0.033s0.14443 2.6422-0.2827 4.202c-0.43496 1.5884-5.3888 0.31078-8.6214 0.73642-1.6011 0.21082-5.0964 4.1903-5.3006 6.7436-0.20427 2.5534 0.0243 43.61 0.12643 49.228 0.10213 5.6175-0.83393 9.4987-0.83393 9.4987z" fill="#a8b4be" fill-opacity=".73382"/></g></svg>
